<?xml version="1.0" standalone="no"?>
<!DOCTYPE svg PUBLIC "-//W3C//DTD SVG 20010904//EN"
 "http://www.w3.org/TR/2001/REC-SVG-20010904/DTD/svg10.dtd">
<svg version="1.0" xmlns="http://www.w3.org/2000/svg"
 width="512.000000pt" height="512.000000pt" viewBox="0 0 512.000000 512.000000"
 preserveAspectRatio="xMidYMid meet">

<g transform="translate(0.000000,512.000000) scale(0.100000,-0.100000)"
fill="#000000" stroke="none">
<path d="M977 3848 c-74 -67 -77 -72 -75 -111 l1 -42 6 42 c5 35 16 51 73 102
l66 61 113 0 c62 0 110 2 108 4 -2 2 -52 6 -110 9 l-105 5 -77 -70z"/>
<path d="M3855 3911 c-61 -7 -53 -8 66 -9 l137 -2 77 -77 78 -78 -61 71 c-34
39 -68 76 -75 82 -18 15 -134 21 -222 13z"/>
<path d="M1370 3885 c41 -7 86 -13 100 -13 42 0 -36 16 -110 22 l-65 5 75 -14z"/>
<path d="M3660 3885 c-74 -17 -32 -17 50 0 36 7 52 13 35 13 -16 0 -55 -6 -85
-13z"/>
<path d="M1520 3860 c14 -4 34 -8 45 -8 16 0 15 2 -5 8 -14 4 -34 8 -45 8 -16
0 -15 -2 5 -8z"/>
<path d="M3550 3860 c-20 -6 -21 -8 -5 -8 11 0 29 3 40 8 25 11 -1 11 -35 0z"/>
<path d="M1598 3843 c7 -3 16 -2 19 1 4 3 -2 6 -13 5 -11 0 -14 -3 -6 -6z"/>
<path d="M3405 3816 c-199 -73 -396 -191 -534 -322 l-76 -72 70 -141 c62 -127
85 -161 85 -131 0 6 37 49 82 96 159 165 365 274 643 339 55 13 89 24 75 24
-33 1 -196 -42 -285 -76 -197 -73 -388 -201 -485 -325 -45 -56 -36 -64 -121
105 l-54 109 70 64 c151 139 363 263 565 333 47 16 78 30 70 30 -8 0 -55 -15
-105 -33z"/>
<path d="M1645 3830 c11 -5 27 -9 35 -9 9 0 8 4 -5 9 -11 5 -27 9 -35 9 -9 0
-8 -4 5 -9z"/>
<path d="M1790 3781 c383 -152 643 -403 796 -768 21 -51 40 -90 42 -88 7 7
-75 192 -116 262 -136 232 -336 420 -571 538 -78 39 -219 95 -236 94 -5 0 33
-17 85 -38z"/>
<path d="M4192 3644 c-7 -55 -26 -152 -42 -215 -41 -160 -42 -169 -25 -124 36
91 92 376 83 421 -2 11 -9 -26 -16 -82z"/>
<path d="M903 3635 c0 -27 2 -38 4 -22 2 15 2 37 0 50 -2 12 -4 0 -4 -28z"/>
<path d="M1242 3588 l1 -43 4 39 4 38 72 -5 c55 -4 62 -3 32 3 -22 5 -57 9
-77 9 l-38 1 2 -42z"/>
<path d="M3810 3619 c-25 -6 -19 -6 24 -3 l59 6 -7 -54 c-3 -29 -8 -64 -11
-78 l-6 -25 11 24 c6 14 13 51 17 83 l6 58 -29 -1 c-16 -1 -45 -5 -64 -10z"/>
<path d="M1420 3600 c14 -4 34 -8 45 -8 l20 -1 -20 9 c-11 5 -31 8 -45 8 l-25
0 25 -8z"/>
<path d="M1570 3559 c377 -130 642 -398 786 -794 18 -49 33 -83 34 -75 1 37
-88 241 -151 346 -116 193 -303 366 -504 467 -56 28 -220 87 -238 86 -7 0 26
-14 73 -30z"/>
<path d="M916 3519 c3 -32 9 -70 14 -85 14 -47 10 3 -5 76 l-15 65 6 -56z"/>
<path d="M1251 3513 c-1 -26 19 -126 25 -121 2 2 -3 35 -10 74 -8 38 -15 59
-15 47z"/>
<path d="M3861 3445 c-2 -39 -88 -234 -141 -320 -64 -103 -220 -268 -323 -340
-38 -26 -117 -72 -175 -102 -121 -60 -129 -71 -14 -18 235 109 452 315 569
540 48 94 97 228 90 247 -3 8 -6 5 -6 -7z"/>
<path d="M941 3394 c-1 -18 40 -146 45 -141 3 2 -7 38 -20 78 -14 41 -25 69
-25 63z"/>
<path d="M1281 3374 c-2 -21 33 -110 70 -182 119 -228 316 -413 579 -543 l80
-39 0 -140 c0 -128 -1 -139 -17 -134 -15 5 -16 4 -3 -5 8 -6 18 -11 23 -11 4
0 7 66 7 148 l0 147 -113 58 c-293 150 -509 385 -607 660 -10 29 -19 47 -19
41z"/>
<path d="M4080 3202 c-74 -183 -168 -328 -310 -481 -133 -144 -388 -303 -594
-372 -38 -13 -65 -24 -59 -26 6 -2 53 13 104 33 368 144 647 390 808 712 46
91 84 183 78 188 -2 2 -14 -22 -27 -54z"/>
<path d="M990 3237 c-1 -22 77 -171 136 -259 111 -167 279 -328 469 -451 95
-61 348 -188 374 -187 3 0 -61 33 -144 74 -384 187 -629 416 -787 736 -26 52
-47 91 -48 87z"/>
<path d="M2631 2905 c0 -5 11 -48 25 -95 13 -47 22 -68 19 -47 -6 40 -43 159
-44 142z"/>
<path d="M2682 2705 c-1 -11 3 -38 7 -60 7 -34 9 -35 9 -10 0 35 -15 101 -16
70z"/>
<path d="M2397 2650 c4 -14 9 -316 10 -672 3 -503 6 -648 16 -648 7 1 26 7 42
16 29 14 7 13 -27 -1 -17 -7 -18 27 -19 626 0 527 -3 640 -15 669 -8 19 -11
24 -7 10z"/>
<path d="M3040 2609 c-30 -11 -86 -28 -125 -39 -38 -10 -61 -19 -49 -19 23 -1
244 67 244 74 0 8 -11 5 -70 -16z"/>
<path d="M2702 2563 c-2 -49 5 -51 93 -27 45 12 46 13 10 8 -22 -3 -52 -8 -67
-11 -25 -5 -27 -2 -31 33 l-4 39 -1 -42z"/>
<path d="M3035 2305 c-22 -8 -31 -13 -20 -13 11 0 36 6 55 13 45 17 18 17 -35
0z"/>
<path d="M2930 2280 c-20 -6 -21 -8 -5 -8 11 0 31 4 45 8 20 6 21 8 5 8 -11 0
-31 -4 -45 -8z"/>
<path d="M2773 2257 l-83 -10 0 -408 0 -407 -66 -22 c-36 -12 -63 -24 -61 -26
2 -3 33 6 68 18 l64 23 3 407 2 406 68 7 c75 7 154 23 112 22 -14 0 -62 -4
-107 -10z"/>
<path d="M2510 1370 c-18 -12 -2 -12 25 0 13 6 15 9 5 9 -8 0 -22 -4 -30 -9z"/>
</g>
</svg>
